# xmcd
#
# Track frame offsets:
#	150
#	10293
#	22785
#	33988
#	42051
#	51993
#	63990
#	75483
#	83818
#	94467
#	103382
#	114113
#	123686
#	133177
#
# Disc length: 1896 seconds
#
# Revision: 1
# Processed by: cddbd v1.5.2PL0 Copyright (c) Steve Scherf et al.
# Submitted via: audiograbber 1.83.01
#
DISCID=b207660e
DTITLE=George Jones - Rock It
DYEAR=1976
DGENRE=Country
TTITLE0=Rock It
TTITLE1=White Lightning
TTITLE2=Eskimo Pie
TTITLE3=Stop Look And Listen
TTITLE4=Done Gone
TTITLE5=Running Bear
TTITLE6=Revenooer Man
TTITLE7=Heartbreak Hotel
TTITLE8=Who Shot Sam
TTITLE9=Singing The Blues
TTITLE10=How Come It
TTITLE11=Just A Little Boy Blue
TTITLE12=The Race Is On
TTITLE13=Maybe Little Baby
EXTD=
EXTT0=
EXTT1=
EXTT2=
EXTT3=
EXTT4=
EXTT5=
EXTT6=
EXTT7=
EXTT8=
EXTT9=
EXTT10=
EXTT11=
EXTT12=
EXTT13=
PLAYORDER=
